# xmcd CD database file
#
# Track frame offsets:
#	150
#	74144
#	141566
#	228966
#
# Disc length: 4227 seconds
#
# Revision: 3
# Processed by: cddbd v1.5PL3 Copyright (c) Steve Scherf et al.
# Submitted via: CDex 1.51
#
DISCID=3d108104
DTITLE=Dorota Anna Rozmus - Healing Voice
DYEAR=2002
DGENRE=New Age
TTITLE0=Light
TTITLE1=Green
TTITLE2=Blue
TTITLE3=Rainbow
EXTD=YEAR: 2002
EXTT0=
EXTT1=
EXTT2=
EXTT3=
PLAYORDER=
